<?xml version="1.0" encoding="UTF-8"?>
<svg id="Snoring-icon" xmlns="http://www.w3.org/2000/svg" version="1.1" xmlns:xlink="http://www.w3.org/1999/xlink" viewBox="0 0 50 55">
  <!-- Generator: Adobe Illustrator 29.3.0, SVG Export Plug-In . SVG Version: 2.1.0 Build 146)  -->
  <defs>
    <style>
      .st0 {
        fill: #fff;
      }

      .st1 {
        fill: none;
      }

      .st2 {
        clip-path: url(#clippath-1);
      }

      .st3 {
        clip-path: url(#clippath);
      }
    </style>
    <clipPath id="clippath">
      <rect class="st1" y="15" width="46.7" height="40"/>
    </clipPath>
    <clipPath id="clippath-1">
      <rect class="st1" x="41.7" y="0" width="8.3" height="10"/>
    </clipPath>
  </defs>
  <g id="Group_3">
    <path id="Clip_2-2" class="st1" d="M0,15h46.7v40H0V15Z"/>
    <g class="st3">
      <g id="Group_3-2">
        <path id="Fill_1" class="st0" d="M29.8,18.7c.3-.1.6-.3.8-.4,1.2-.6,2.4.2,3.5,0,0,0,.2,0,.2,0,.6,1.3,1.5,1,2.6.8,2.2-.3,3.7.8,4.2,3.2.5,2.2.9,4.5,1.2,6.8.3,1.4,1.3,2.5,2.7,3,1.9.8,1.8,1.3,1.4,3.3-.1.8-.2,1.5-.2,2.3-1.3-1-2.8-1.7-4.4-2-4.2-.9-8.5-.2-12.7-.4-.4,0-.7,0-1.3,0,.7-1,1.3-1.9,1.9-2.7,1.1-1.6,2.3-3.2,3.3-4.9.4-1,.6-2,.7-3-1.7-.4-2.1,0-2.5,1.6-.6,2.4-1.8,4.6-3.5,6.3-.6.5-1.2.9-1.8,1.2-.7-1.7-.1-3.1.4-4.4.8-2.2,1.7-4.3,2.5-6.5,0-.2,0-.4,0-.6-1.7-.2-2.1-1.5-2.4-2.8-1.1-.2-2.2.5-2.6,1.6-.7,1.6-1.3,3.2-1.6,4.9-.3,2.2-.5,4.4-.4,6.6,0,1.4.2,3.1,1.9,3.7,1.2.4,2.4.7,3.6.9,2.4.3,4.8.4,7.1.9,1.5.4,3,.9,4.3,1.7,2.2,1.1,4.3,2.3,6.4,3.4.5.2.8.5.8,1.2,0,2.5-.1,5-.2,7.4,0,.3,0,.5,0,.8-.1.7-.8,1.2-1.5,1.1-.2,0-.4-.1-.6-.2-2-1.1-4-2.2-6-3.3-1.5-.9-3.3-1.3-5-1-1.4.4-2.8.9-4.1,1.6-2,1-4,2.1-6.1,3-1.3.4-2.6.8-3.9.9-1,.2-1.9.3-2.9.3-4.2-.1-8.1-1.9-11-5-1.6-1.9-2.8-4-3.5-6.3-.9-2.4-1.3-4.9-1.1-7.5.2-1.8.6-3.5,1.2-5.2,1.2-3,3-5.7,5.4-7.8,1.8-1.8,4.2-3,6.7-3.5,1.3-.3,2.6-.4,3.9-.3,1.8.1,3.1-1,4.5-1.7,1.5-.7,2.9-1.7,4.4-2.5,1.2-.5,2.6.1,3.1,1.4.2.7.3,1.3.5,2.1"/>
      </g>
    </g>
  </g>
  <g id="Group_6">
    <path id="Clip_5-2" class="st1" d="M41.7,0h8.3v10h-8.3V0Z"/>
    <g class="st2">
      <g id="Group_6-2">
        <path id="Fill_4" class="st0" d="M46,2.4c-1,0-1.9,0-2.8,0-1,0-1-.7-1-1.4S42.4,0,43.2,0c2.2,0,4.4,0,6.7,0,.3,1.1,0,2.4-.9,3.2-1.2,1.4-2.4,2.8-3.7,4.4h4.6v2.4h-3.1c-1.4,0-2.9,0-4.3,0-.6,0-.7-.2-.8-.7-.3-1.4.7-2.2,1.4-3.2.8-1,1.7-1.9,2.5-2.9.1-.2.3-.5.3-.8"/>
      </g>
    </g>
  </g>
  <path id="Fill_7" class="st0" d="M36,8.6h-2.9c-.2-1.8-.1-1.9,1.5-1.9s2.3,0,3.5,0c.9,0,1.4.6.9,1.4-.8,1.3-1.7,2.5-2.6,3.8-.2.3-.5.7-.9,1.2h3.6v2c-2.1,0-4,0-6,0-.6,0-.8-1.3-.3-2,.8-1.2,1.7-2.3,2.6-3.5.2-.2.3-.4.6-.9"/>
</svg>