<svg width="931" height="601" viewBox="0 0 931 601" fill="none" xmlns="http://www.w3.org/2000/svg">
<path d="M306.649 3.50065e-05L931 -1.79889e-05C931 -1.79889e-05 928.781 -1.78006e-05 924.272 1.4929C898.61 9.66972 798.632 62.938 601.485 409.555C590.665 426.723 583.348 437.58 577.28 446.096C569.512 456.851 563.824 463.943 555.467 475.275L555.363 475.275C519.297 524.234 468.424 562.166 409.193 582.761C377.046 593.924 342.541 600.031 306.475 600.031C300.06 600.031 293.61 599.861 287.056 599.454C134.99 590.192 11.223 470.016 0.750058 321.34C-11.5955 145.962 130.066 0.0340466 306.684 0.0340316" fill="#EFECEA"/>
</svg>
